<svg width="25" height="23" viewBox="0 0 25 23" fill="none" xmlns="http://www.w3.org/2000/svg">
<path d="M0.78125 5.25H21.0938C21.5254 5.25 21.875 4.90039 21.875 4.46875V1.34375C21.875 0.912109 21.5254 0.5625 21.0938 0.5625H0.78125C0.349609 0.5625 0 0.912109 0 1.34375V4.46875C0 4.90039 0.349609 5.25 0.78125 5.25ZM24.2188 9.15625H3.90625C3.47461 9.15625 3.125 9.50586 3.125 9.9375V13.0625C3.125 13.4941 3.47461 13.8438 3.90625 13.8438H24.2188C24.6504 13.8438 25 13.4941 25 13.0625V9.9375C25 9.50586 24.6504 9.15625 24.2188 9.15625ZM21.0938 17.75H0.78125C0.349609 17.75 0 18.0996 0 18.5312V21.6562C0 22.0879 0.349609 22.4375 0.78125 22.4375H21.0938C21.5254 22.4375 21.875 22.0879 21.875 21.6562V18.5312C21.875 18.0996 21.5254 17.75 21.0938 17.75Z" fill="#F41F4E"/>
</svg>
