<svg width="25" height="25" viewBox="0 0 25 25" fill="none" xmlns="http://www.w3.org/2000/svg">
<g clip-path="url(#clip0_982_234)">
<path d="M23.7196 8.55935L16.8927 7.56541L13.8418 1.3905C13.5676 0.838732 13.0326 0.559814 12.4976 0.559814C11.9659 0.559814 11.4347 0.835001 11.1595 1.3905L8.10771 7.56494L1.28028 8.55795C0.0559337 8.73519 -0.434738 10.2413 0.452855 11.1041L5.39175 15.9082L4.22291 22.6937C4.05687 23.6629 4.83065 24.4404 5.69726 24.4404C5.9272 24.4404 6.16368 24.3858 6.39082 24.2655L12.4986 21.0621L18.6058 24.2664C18.8325 24.3854 19.0685 24.4395 19.2975 24.4395C20.1651 24.4395 20.9403 23.6648 20.7742 22.6951L19.6068 15.9092L24.5466 11.106C25.4347 10.2431 24.944 8.73659 23.7196 8.55935ZM18.0415 14.3056L17.1963 15.1274L17.396 16.2879L18.3064 21.5794L13.5429 19.0799L12.499 18.5323L12.5004 3.73799L14.8806 8.55562L15.402 9.61112L16.5685 9.7809L21.8964 10.5565L18.0415 14.3056Z" fill="#F4B000"/>
</g>
<defs>
<clipPath id="clip0_982_234">
<rect width="25" height="25" fill="white"/>
</clipPath>
</defs>
</svg>
